<?xml version="1.0" standalone="no"?><!DOCTYPE svg PUBLIC "-//W3C//DTD SVG 1.1//EN" "http://www.w3.org/Graphics/SVG/1.1/DTD/svg11.dtd"><svg t="1639899149171" class="icon" viewBox="0 0 1024 1024" version="1.1" xmlns="http://www.w3.org/2000/svg" p-id="2009" width="16" height="16" xmlns:xlink="http://www.w3.org/1999/xlink"><defs><style type="text/css">html, * { user-select: text !important; }
</style></defs><path d="M880 912a32 32 0 0 1-32-32V208a32 32 0 0 0-32-32H208a32 32 0 0 0-32 32v608a32 32 0 0 0 32 32h448a32 32 0 0 1 0 64H208a96 96 0 0 1-96-96V208a96 96 0 0 1 96-96h608a96 96 0 0 1 96 96v672a32 32 0 0 1-32 32z" p-id="2010" fill="#337c97"></path><path d="M512 368H256a32 32 0 0 1 0-64h256a32 32 0 0 1 0 64z" p-id="2011" fill="#337c97"></path><path d="M384 752a32 32 0 0 1-32-32V336a32 32 0 0 1 64 0v384a32 32 0 0 1-32 32zM768 496H576a32 32 0 0 1 0-64h192a32 32 0 0 1 0 64z" p-id="2012" fill="#337c97"></path><path d="M672 752a32 32 0 0 1-32-32V480a32 32 0 0 1 64 0v240a32 32 0 0 1-32 32zM768 848a32 32 0 1 0 32 32 32 32 0 0 0-32-32z" p-id="2013" fill="#337c97"></path></svg>